; NON-PLATED HOLES START AT T1
; THROUGH (PLATED) HOLES START AT T100
M48
INCH
T100C0.038000
T101C0.038028
%
T100
X006595Y005032
X006595Y006032
X006596Y011032
X012595Y010032
X021595Y009032
X005596Y011032
X004595Y011032
X012595Y005032
X012595Y006032
X007595Y007032
X012595Y011032
X007595Y004032
X012595Y012032
X008595Y004032
X008595Y007032
X021595Y007032
X012595Y008032
X012595Y007032
X021595Y008032
X021595Y012032
X006595Y007032
X006595Y004032
X021595Y011032
X021595Y005032
X021595Y006032
X008595Y006032
X006596Y013032
X012595Y009032
X008595Y005032
X005596Y013032
X004595Y013032
X021595Y010032
X007595Y005032
X007595Y006032
T101
X007596Y013032
X007596Y011032
T00
M30
